<svg width="36" height="50" viewBox="0 0 36 50" fill="none" xmlns="http://www.w3.org/2000/svg">
<path d="M35.9059 45.4667L33.3684 16.7167C33.1778 14.551 31.3934 12.9167 29.2184 12.9167C28.7187 12.9167 28.3122 13.3229 28.3122 13.8229V18.3052C28.3122 18.749 27.9768 19.1365 27.534 19.1646C27.0486 19.1958 26.6455 18.8115 26.6455 18.3333V8.64583C26.6455 3.87812 22.7674 0 17.9997 0C13.232 0 9.35383 3.87812 9.35383 8.64583V12.9167H6.78092C4.60592 12.9167 2.82154 14.551 2.63092 16.7167L0.0934159 45.4667C-0.120126 47.8964 1.79581 50 4.24446 50H31.7549C34.2038 50 36.1195 47.896 35.9059 45.4667ZM13.208 44.4792H7.16633C6.70612 44.4792 6.333 44.106 6.333 43.6458C6.333 43.1856 6.70612 42.8125 7.16633 42.8125H13.208C13.6682 42.8125 14.0413 43.1856 14.0413 43.6458C14.0413 44.106 13.6682 44.4792 13.208 44.4792ZM13.208 40.3125H7.16633C6.70612 40.3125 6.333 39.9394 6.333 39.4792C6.333 39.019 6.70612 38.6458 7.16633 38.6458H13.208C13.6682 38.6458 14.0413 39.019 14.0413 39.4792C14.0413 39.9394 13.6682 40.3125 13.208 40.3125ZM24.9788 12.9167H13.5934C13.0934 12.9167 12.6872 13.3229 12.6872 13.8229V18.3052C12.6872 18.749 12.3517 19.1365 11.909 19.1646C11.4236 19.1958 11.0205 18.8115 11.0205 18.3333V8.64583C11.0205 4.79792 14.1517 1.66667 17.9997 1.66667C21.8476 1.66667 24.9788 4.79792 24.9788 8.64583V12.9167Z" fill="#DB3022"/>
</svg>
